<svg xmlns="http://www.w3.org/2000/svg" xmlns:xlink="http://www.w3.org/1999/xlink" width="448" height="448" viewBox="0 0 448 448">
    <defs>
        <path id="a" d="M220.51 440.065c-121.503 0-220-98.497-220-220 0-70.282 32.956-132.868 84.26-173.144 3.95-3.1 8.008-6.07 12.169-8.899C132.162 14.066 174.7.065 220.509.065c121.503 0 220 98.498 220 220 0 121.503-98.497 220-220 220z"/>
    </defs>
    <g fill="none" fill-rule="evenodd" transform="rotate(-68.5 225.542 219.394)">
        <mask id="b" fill="#fff">
            <use xlink:href="#a"/>
        </mask>
        <path stroke="#16092C" stroke-width="4" d="M220.51 442.065c-122.608 0-222-99.392-222-222 0-69.056 31.737-132.883 85.025-174.717a222.744 222.744 0 0 1 12.279-8.98c36.498-24.823 79.593-38.303 124.695-38.303 122.607 0 222 99.393 222 222 0 122.608-99.393 222-222 222z"/>
        <g stroke="#3A2A56" mask="url(#b)">
            <path fill="#9B5AFF" stroke-opacity=".3" d="M139.958 15.349c-8.595 3.377-16.986 7.367-24.967 11.767L221 220 139.958 15.349z"/>
            <path fill="#9B5AFF" stroke-opacity=".3" d="M166.256 6.856c-9.005 2.353-17.805 5.116-26.298 8.493L221 220 166.256 6.856zM114.99 27.219c-8.083 4.502-15.86 9.414-23.33 14.837L221 220 114.99 27.219z"/>
            <path fill="#FDE907" stroke-opacity=".5" d="M221 0c-9.312 0-18.52.614-27.526 1.74L221 220V0z"/>
            <path fill="#3A2A56" stroke-opacity=".5" d="M193.474 1.74a214.964 214.964 0 0 0-27.116 5.116L221 220 193.474 1.74z"/>
            <path fill="#FDE907" stroke-opacity=".5" d="M11.744 151.953c-2.865 8.698-5.116 17.6-6.856 26.81L221 220 11.744 151.953z"/>
            <path fill="#9B5AFF" stroke-opacity=".3" d="M21.874 126.27c-3.888 8.288-7.265 16.883-10.13 25.683L221 220 21.874 126.27zM91.66 42.056c-7.47 5.423-14.53 11.358-21.283 17.6L221 220 91.66 42.056zM248.526 1.74C239.52.614 230.312 0 221 0v220L248.526 1.74z"/>
            <path fill="#9B5AFF" stroke-opacity=".3" d="M35.28 102.12c-4.913 7.778-9.415 15.861-13.303 24.252L221 220 35.28 102.12z"/>
            <path fill="#9B5AFF" stroke-opacity=".3" d="M51.447 79.814c-5.833 7.06-11.256 14.53-16.27 22.307L221 220 51.447 79.814z"/>
            <path fill="#3A2A56" stroke-opacity=".5" d="M70.377 59.656a221.37 221.37 0 0 0-18.93 20.158L221 220 70.377 59.656zM4.888 178.763c-1.74 9.004-2.865 18.111-3.479 27.423L221 220 4.888 178.763z"/>
            <path fill="#9B5AFF" stroke-opacity=".3" d="M406.72 102.12c-4.91-7.776-10.334-15.246-16.269-22.306L221 220l185.72-117.88z"/>
            <path fill="#3A2A56" stroke-opacity=".5" d="M420.126 126.27c-3.991-8.39-8.391-16.475-13.303-24.251L221 220l199.126-93.73z"/>
            <path fill="#9B5AFF" stroke-opacity=".3" d="M437.112 178.763c-1.74-9.107-3.991-18.112-6.856-26.81L221 220l216.112-41.237z"/>
            <path fill="#FDE907" stroke-opacity=".5" d="M430.256 151.953c-2.865-8.8-6.242-17.395-10.13-25.683L221 220l209.256-68.047z"/>
            <path fill="#9B5AFF" stroke-opacity=".3" d="M275.744 6.856a214.964 214.964 0 0 0-27.116-5.116L221 220 275.744 6.856zM440.59 206.186c-.613-9.312-1.739-18.419-3.478-27.423L221 220l219.59-13.814z"/>
            <path fill="#9B5AFF" stroke-opacity=".3" d="M440.59 233.814c.308-4.605.41-9.21.41-13.814 0-4.605-.205-9.21-.41-13.814L221 220l219.59 13.814zM302.042 15.349a207.47 207.47 0 0 0-26.298-8.493L221 220l81.042-204.651z"/>
            <path fill="#3A2A56" stroke-opacity=".5" d="M327.01 27.219c-8.084-4.4-16.373-8.391-24.968-11.768L221 220 327.01 27.219z"/>
            <path fill="#9B5AFF" stroke-opacity=".3" d="M371.623 59.656a218.242 218.242 0 0 0-21.283-17.6L221 220 371.623 59.656z"/>
            <path fill="#9B5AFF" stroke-opacity=".3" d="M350.34 42.056c-7.47-5.423-15.247-10.335-23.33-14.837L221 220 350.34 42.056zM390.553 79.814a219.646 219.646 0 0 0-18.93-20.158L221 220 390.553 79.814zM327.01 412.781c8.083-4.502 15.86-9.414 23.33-14.837L221 220l106.01 192.781zM302.042 424.651c8.595-3.377 16.986-7.367 24.967-11.767L221 220l81.042 204.651z"/>
            <path fill="#3A2A56" stroke-opacity=".5" d="M371.623 380.344a220.508 220.508 0 0 0 18.93-20.158L221 220l150.623 160.344z"/>
            <path fill="#FDE907" stroke-opacity=".5" d="M350.34 397.944c7.47-5.423 14.53-11.358 21.283-17.6L221 220l129.34 177.944z"/>
            <path fill="#9B5AFF" stroke-opacity=".3" d="M275.744 433.144c9.005-2.353 17.805-5.116 26.298-8.493L221 220l54.744 213.144z"/>
            <path fill="#3A2A56" stroke-opacity=".5" d="M248.526 438.26a214.964 214.964 0 0 0 27.116-5.116L221 220l27.526 218.26z"/>
            <path fill="#9B5AFF" stroke-opacity=".3" d="M221 440c9.312 0 18.52-.614 27.526-1.74L221 220v220zM193.474 438.26C202.48 439.386 211.688 440 221 440V220l-27.526 218.26zM430.256 288.047c2.865-8.698 5.116-17.6 6.856-26.81L221 220l209.256 68.047z"/>
            <path fill="#3A2A56" stroke-opacity=".5" d="M221 220l216.112 41.237c1.74-9.004 2.865-18.111 3.479-27.423L221 220z"/>
            <path fill="#9B5AFF" stroke-opacity=".3" d="M406.72 337.88c4.913-7.778 9.415-15.861 13.303-24.252L221 220l185.72 117.88z"/>
            <path fill="#9B5AFF" stroke-opacity=".3" d="M390.553 360.186c5.833-7.06 11.256-14.53 16.27-22.307L221 220l169.553 140.186zM420.126 313.73c3.888-8.288 7.265-16.883 10.13-25.683L221 220l199.126 93.73z"/>
            <path fill="#3A2A56" stroke-opacity=".5" d="M114.99 412.781c8.084 4.4 16.373 8.391 24.968 11.768L221 220 114.99 412.781z"/>
            <path fill="#9B5AFF" stroke-opacity=".3" d="M11.744 288.047c2.865 8.8 6.242 17.395 10.13 25.683L221 220 11.744 288.047z"/>
            <path fill="#3A2A56" stroke-opacity=".5" d="M21.874 313.73c3.991 8.39 8.391 16.475 13.303 24.251L221 220 21.874 313.73z"/>
            <path fill="#9B5AFF" stroke-opacity=".3" d="M35.28 337.88c4.91 7.776 10.334 15.246 16.269 22.306L221 220 35.28 337.88zM4.888 261.237c1.74 9.107 3.991 18.112 6.856 26.81L221 220 4.888 261.237zM1.41 233.814c.613 9.312 1.739 18.419 3.478 27.423L221 220 1.41 233.814zM70.377 380.344a218.242 218.242 0 0 0 21.283 17.6L221 220 70.377 380.344zM139.958 424.651a207.47 207.47 0 0 0 26.298 8.493L221 220l-81.042 204.651z"/>
            <path fill="#9B5AFF" stroke-opacity=".3" d="M1.41 206.186C1.204 210.791 1 215.396 1 220c0 4.605.205 9.21.41 13.814L221 220 1.41 206.186zM51.447 360.186a219.646 219.646 0 0 0 18.93 20.158L221 220 51.447 360.186z"/>
            <path fill="#FDE907" stroke-opacity=".5" d="M91.66 397.944c7.47 5.423 15.247 10.335 23.33 14.837L221 220 91.66 397.944z"/>
            <path fill="#9B5AFF" stroke-opacity=".3" d="M166.256 433.144c8.8 2.251 17.907 3.99 27.116 5.116L221 220l-54.744 213.144z"/>
        </g>
    </g>
</svg>
