<svg xmlns="http://www.w3.org/2000/svg" xmlns:xlink="http://www.w3.org/1999/xlink" width="448" height="448" viewBox="0 0 448 448">
    <defs>
        <path id="a" d="M220.996 440.996c-121.503 0-220-98.498-220-220 0-70.283 32.957-132.868 84.26-173.145 3.95-3.1 8.008-6.069 12.169-8.899C132.648 14.996 175.187.996 220.995.996c121.503 0 220 98.497 220 220 0 121.502-98.497 220-220 220z"/>
    </defs>
    <g fill="none" fill-rule="evenodd" transform="rotate(3.5 172.905 271.095)">
        <mask id="b" fill="#fff">
            <use xlink:href="#a"/>
        </mask>
        <path stroke="#16092C" stroke-width="4" d="M220.996 442.996c-122.608 0-222-99.393-222-222 0-69.057 31.738-132.884 85.025-174.718a222.744 222.744 0 0 1 12.28-8.98c36.497-24.823 79.592-38.302 124.695-38.302 122.607 0 222 99.392 222 222 0 122.607-99.393 222-222 222z"/>
        <g stroke="#3A2A56" mask="url(#b)">
            <path fill="#3A2A56" stroke-opacity=".5" d="M139.954 16.344c-8.596 3.377-16.986 7.368-24.968 11.768l106.01 192.884-81.042-204.652z"/>
            <path fill="#9B5AFF" stroke-opacity=".3" d="M166.251 7.851c-9.004 2.354-17.804 5.117-26.297 8.493l81.042 204.652L166.25 7.85z"/>
            <path fill="#FFED2A" stroke-opacity=".5" d="M114.986 28.214c-8.083 4.503-15.86 9.414-23.33 14.837l129.34 177.945-106.01-192.782zM220.996.996c-9.312 0-18.521.614-27.526 1.74l27.526 218.26v-220z"/>
            <path fill="#3A2A56" stroke-opacity=".5" d="M193.47 2.735a214.964 214.964 0 0 0-27.116 5.116l54.642 213.145L193.47 2.736z"/>
            <path fill="#9B5AFF" stroke-opacity=".3" d="M11.74 152.95c-2.865 8.697-5.116 17.6-6.856 26.808l216.112 41.238L11.74 152.949z"/>
            <path fill="#3A2A56" stroke-opacity=".5" d="M21.87 127.265c-3.888 8.289-7.265 16.884-10.13 25.684l209.256 68.047-199.126-93.73zM91.656 43.051c-7.47 5.424-14.53 11.359-21.284 17.6l150.624 160.345L91.656 43.05zM248.521 2.735c-9.004-1.125-18.214-1.74-27.525-1.74v220L248.52 2.736z"/>
            <path fill="#FF4A60" stroke-opacity=".5" d="M35.275 103.117c-4.912 7.776-9.414 15.86-13.303 24.25l199.024 93.629-185.721-117.88z"/>
            <path fill="#3A2A56" stroke-opacity=".5" d="M51.442 80.81c-5.832 7.06-11.256 14.53-16.27 22.307l185.824 117.879L51.442 80.81z"/>
            <path fill="#9B5AFF" stroke-opacity=".3" d="M70.372 60.651a221.37 221.37 0 0 0-18.93 20.159l169.554 140.186L70.372 60.65z"/>
            <path fill="#3A2A56" stroke-opacity=".5" d="M4.884 179.758c-1.74 9.005-2.865 18.112-3.48 27.424l219.592 13.814L4.884 179.758z"/>
            <path fill="#00E402" stroke-opacity=".5" d="M406.717 103.117c-4.912-7.777-10.335-15.247-16.27-22.307L220.996 220.996l185.72-117.88z"/>
            <path fill="#3A2A56" stroke-opacity=".5" d="M420.121 127.265c-3.99-8.39-8.39-16.474-13.302-24.25l-185.823 117.98 199.125-93.73zM437.107 179.758c-1.74-9.107-3.99-18.111-6.856-26.809l-209.255 68.047 216.111-41.238z"/>
            <path fill="#9B5AFF" stroke-opacity=".3" d="M430.251 152.95c-2.865-8.8-6.241-17.396-10.13-25.685l-199.125 93.73L430.25 152.95z"/>
            <path fill="#9B5AFF" stroke-opacity=".3" d="M275.74 7.851a214.964 214.964 0 0 0-27.116-5.116l-27.628 218.26L275.74 7.852zM440.586 207.182c-.614-9.312-1.74-18.419-3.479-27.424l-216.111 41.238 219.59-13.814z"/>
            <path fill="#3A2A56" stroke-opacity=".5" d="M440.586 234.81c.307-4.605.41-9.21.41-13.814 0-4.605-.205-9.21-.41-13.814l-219.59 13.814 219.59 13.814zM302.037 16.344a207.47 207.47 0 0 0-26.297-8.493l-54.744 213.145 81.041-204.652z"/>
            <path fill="#FFED2A" stroke-opacity=".5" d="M327.005 28.214c-8.084-4.4-16.372-8.39-24.968-11.767l-81.041 204.549L327.005 28.214z"/>
            <path fill="#9B5AFF" stroke-opacity=".3" d="M371.619 60.651a218.242 218.242 0 0 0-21.284-17.6l-129.34 177.945L371.62 60.65z"/>
            <path fill="#3A2A56" stroke-opacity=".5" d="M350.335 43.051c-7.47-5.423-15.246-10.334-23.33-14.837l-106.01 192.782L350.336 43.05zM390.55 80.81a219.646 219.646 0 0 0-18.931-20.159L220.996 220.996 390.549 80.81zM327.005 413.777c8.084-4.502 15.86-9.414 23.33-14.837l-129.34-177.944 106.01 192.781z"/>
            <path fill="#FFED2A" stroke-opacity=".5" d="M302.037 425.647c8.596-3.377 16.987-7.368 24.968-11.768l-106.01-192.883 81.042 204.65z"/>
            <path fill="#3A2A56" stroke-opacity=".5" d="M371.619 381.34a220.508 220.508 0 0 0 18.93-20.158L220.996 220.996 371.619 381.34z"/>
            <path fill="#9B5AFF" stroke-opacity=".3" d="M350.335 398.94c7.47-5.423 14.53-11.358 21.284-17.6L220.996 220.996l129.34 177.944z"/>
            <path fill="#3A2A56" stroke-opacity=".5" d="M275.74 434.14c9.004-2.354 17.804-5.116 26.297-8.493l-81.041-204.651L275.74 434.14z"/>
            <path fill="#9B5AFF" stroke-opacity=".3" d="M248.521 439.256a214.964 214.964 0 0 0 27.116-5.116l-54.641-213.144 27.525 218.26z"/>
            <path fill="#3A2A56" stroke-opacity=".5" d="M220.996 440.996c9.311 0 18.52-.614 27.525-1.74l-27.525-218.26v220z"/>
            <path fill="#FFED2A" stroke-opacity=".5" d="M193.47 439.256c9.005 1.126 18.214 1.74 27.526 1.74v-220l-27.526 218.26z"/>
            <path fill="#3A2A56" stroke-opacity=".5" d="M430.251 289.042c2.866-8.698 5.117-17.6 6.856-26.81l-216.111-41.236 209.255 68.046z"/>
            <path fill="#FFED2A" stroke-opacity=".5" d="M220.996 220.996l216.111 41.237c1.74-9.005 2.865-18.112 3.48-27.423l-219.591-13.814z"/>
            <path fill="#3A2A56" stroke-opacity=".5" d="M406.717 338.875c4.911-7.777 9.414-15.86 13.302-24.251l-199.023-93.628 185.72 117.879z"/>
            <path fill="#00E402" stroke-opacity=".5" d="M390.55 361.182c5.832-7.06 11.255-14.53 16.269-22.307l-185.823-117.88 169.553 140.187z"/>
            <path fill="#9B5AFF" stroke-opacity=".3" d="M420.121 314.726c3.889-8.288 7.265-16.884 10.13-25.684l-209.255-68.046 199.125 93.73z"/>
            <path fill="#3A2A56" stroke-opacity=".5" d="M114.986 413.777c8.084 4.4 16.372 8.39 24.968 11.767l81.042-204.548-106.01 192.781zM11.74 289.042c2.865 8.8 6.242 17.396 10.13 25.684l199.126-93.73L11.74 289.042z"/>
            <path fill="#9B5AFF" stroke-opacity=".3" d="M21.87 314.726c3.99 8.39 8.39 16.474 13.302 24.251l185.824-117.981-199.126 93.73z"/>
            <path fill="#3A2A56" stroke-opacity=".5" d="M35.275 338.875c4.911 7.776 10.335 15.246 16.27 22.307l169.45-140.186-185.72 117.879z"/>
            <path fill="#FFED2A" stroke-opacity=".5" d="M4.884 262.233c1.74 9.107 3.99 18.111 6.856 26.81l209.256-68.047L4.884 262.233z"/>
            <path fill="#3A2A56" stroke-opacity=".5" d="M1.405 234.81c.614 9.311 1.74 18.418 3.479 27.423l216.112-41.237L1.405 234.81zM70.372 381.34a218.242 218.242 0 0 0 21.284 17.6l129.34-177.944L70.372 381.34z"/>
            <path fill="#FFED2A" stroke-opacity=".5" d="M139.954 425.647a207.47 207.47 0 0 0 26.297 8.493l54.745-213.144-81.042 204.65z"/>
            <path fill="#9B5AFF" stroke-opacity=".3" d="M1.405 207.182c-.205 4.604-.41 9.209-.41 13.814 0 4.604.205 9.209.41 13.814l219.59-13.814-219.59-13.814z"/>
            <path fill="#00E402" stroke-opacity=".5" d="M51.442 361.182a219.646 219.646 0 0 0 18.93 20.158l150.624-160.344L51.442 361.182z"/>
            <path fill="#9B5AFF" stroke-opacity=".3" d="M91.656 398.94c7.47 5.423 15.247 10.335 23.33 14.837l106.01-192.781L91.656 398.94z"/>
            <path fill="#3A2A56" stroke-opacity=".5" d="M166.251 434.14c8.8 2.251 17.907 3.99 27.117 5.116l27.628-218.26L166.25 434.14z"/>
        </g>
    </g>
</svg>
