<svg xmlns="http://www.w3.org/2000/svg" xmlns:xlink="http://www.w3.org/1999/xlink" width="448" height="448" viewBox="0 0 448 448">
    <defs>
        <path id="a" d="M220.997 440.997c-121.502 0-220-98.497-220-220 0-70.282 32.958-132.868 84.26-173.144 3.95-3.1 8.01-6.07 12.17-8.899C132.65 14.998 175.189.997 220.997.997c121.503 0 220 98.498 220 220 0 121.503-98.497 220-220 220z"/>
    </defs>
    <g fill="none" fill-rule="evenodd" transform="rotate(3.3 170.38 273.617)">
        <mask id="b" fill="#fff">
            <use xlink:href="#a"/>
        </mask>
        <path stroke="#16092C" stroke-width="4" d="M220.997 442.997c-122.607 0-222-99.392-222-222 0-69.056 31.738-132.883 85.026-174.717a222.744 222.744 0 0 1 12.279-8.98C132.8 12.477 175.895-1.003 220.997-1.003c122.608 0 222 99.393 222 222 0 122.608-99.392 222-222 222z"/>
        <g stroke="#3A2A56" stroke-opacity=".5" mask="url(#b)">
            <path fill="#3A2A56" d="M139.956 16.346c-8.596 3.377-16.987 7.368-24.968 11.768l106.01 192.883-81.042-204.65z"/>
            <path fill="#3A2A56" d="M166.253 7.853c-9.004 2.354-17.804 5.116-26.297 8.493l81.041 204.651L166.253 7.853z"/>
            <path fill="#3A2A56" d="M114.988 28.216c-8.084 4.502-15.86 9.414-23.33 14.837l129.34 177.944-106.01-192.781zM220.997.997c-9.311 0-18.52.614-27.525 1.74l27.525 218.26v-220z"/>
            <path fill="#FF4A60" d="M193.472 2.737a214.964 214.964 0 0 0-27.116 5.116l54.641 213.144-27.525-218.26z"/>
            <path fill="#3A2A56" d="M11.742 152.95c-2.866 8.699-5.117 17.6-6.856 26.81l216.111 41.237-209.255-68.046z"/>
            <path fill="#3A2A56" d="M21.872 127.267c-3.889 8.289-7.265 16.884-10.13 25.684l209.255 68.046-199.125-93.73zM91.658 43.053c-7.47 5.423-14.53 11.358-21.284 17.6l150.623 160.344L91.657 43.053zM248.523 2.737c-9.005-1.126-18.214-1.74-27.526-1.74v220l27.526-218.26z"/>
            <path fill="#3A2A56" d="M35.276 103.118c-4.911 7.777-9.414 15.86-13.302 24.251l199.023 93.628-185.72-117.879z"/>
            <path fill="#3A2A56" d="M51.444 80.811c-5.833 7.06-11.256 14.53-16.27 22.307l185.823 117.88L51.444 80.81z"/>
            <path fill="#3A2A56" d="M70.374 60.653a221.37 221.37 0 0 0-18.93 20.158l169.553 140.186L70.374 60.653z"/>
            <path fill="#3A2A56" d="M4.886 179.76c-1.74 9.005-2.865 18.112-3.48 27.423l219.591 13.814L4.886 179.76zM406.718 103.118c-4.911-7.776-10.335-15.246-16.27-22.307l-169.45 140.186 185.72-117.879z"/>
            <path fill="#3A2A56" d="M420.123 127.267c-3.99-8.39-8.39-16.474-13.302-24.251L220.997 220.997l199.126-93.73z"/>
            <path fill="#3A2A56" d="M437.109 179.76c-1.74-9.107-3.99-18.111-6.856-26.81l-209.256 68.047L437.11 179.76z"/>
            <path fill="#3A2A56" d="M430.253 152.95c-2.865-8.8-6.242-17.394-10.13-25.683l-199.126 93.73 209.256-68.046zM275.742 7.853a214.964 214.964 0 0 0-27.117-5.116l-27.628 218.26L275.742 7.853z"/>
            <path fill="#3A2A56" d="M440.588 207.183c-.614-9.311-1.74-18.418-3.479-27.423l-216.112 41.237 219.591-13.814zM440.588 234.811c.307-4.604.41-9.209.41-13.814 0-4.604-.205-9.209-.41-13.814l-219.59 13.814 219.59 13.814zM302.04 16.346a207.47 207.47 0 0 0-26.298-8.493l-54.745 213.144 81.042-204.65z"/>
            <path fill="#3A2A56" d="M327.007 28.216c-8.084-4.4-16.372-8.39-24.968-11.767l-81.042 204.548 106.01-192.781z"/>
            <path fill="#3A2A56" d="M371.62 60.653a218.242 218.242 0 0 0-21.283-17.6l-129.34 177.944L371.621 60.653z"/>
            <path fill="#3A2A56" d="M350.337 43.053c-7.47-5.423-15.247-10.335-23.33-14.837l-106.01 192.781 129.34-177.944zM390.55 80.811a219.646 219.646 0 0 0-18.93-20.158L220.998 220.997 390.551 80.811zM327.007 413.779c8.083-4.503 15.86-9.414 23.33-14.837l-129.34-177.945 106.01 192.782z"/>
            <path fill="#3A2A56" d="M302.04 425.649c8.595-3.377 16.985-7.368 24.967-11.768l-106.01-192.884L302.04 425.65zM371.62 381.342a220.508 220.508 0 0 0 18.93-20.159L220.998 220.997l150.624 160.345z"/>
            <path fill="#3A2A56" d="M350.337 398.942c7.47-5.424 14.53-11.359 21.284-17.6L220.997 220.997l129.34 177.945z"/>
            <path fill="#3A2A56" d="M275.742 434.142c9.004-2.354 17.804-5.117 26.297-8.493l-81.042-204.652 54.745 213.145zM248.523 439.258a214.964 214.964 0 0 0 27.116-5.116l-54.642-213.145 27.526 218.26z"/>
            <path fill="#3A2A56" d="M220.997 440.997c9.312 0 18.521-.614 27.526-1.74l-27.526-218.26v220zM193.472 439.258c9.004 1.125 18.214 1.74 27.525 1.74v-220l-27.525 218.26zM430.253 289.044c2.865-8.698 5.116-17.6 6.856-26.81l-216.112-41.237 209.256 68.047z"/>
            <path fill="#3A2A56" d="M220.997 220.997l216.112 41.238c1.74-9.005 2.865-18.112 3.48-27.424l-219.592-13.814z"/>
            <path fill="#3A2A56" d="M406.718 338.876c4.912-7.776 9.414-15.86 13.303-24.25l-199.024-93.629 185.721 117.88z"/>
            <path fill="#3A2A56" d="M390.55 361.183c5.833-7.06 11.257-14.53 16.27-22.307L220.998 220.997l169.554 140.186z"/>
            <path fill="#3A2A56" d="M420.123 314.728c3.888-8.289 7.265-16.884 10.13-25.684l-209.256-68.047 199.126 93.73zM114.988 413.779c8.084 4.4 16.372 8.39 24.968 11.767l81.041-204.549L114.988 413.78z"/>
            <path fill="#3A2A56" d="M11.742 289.044c2.865 8.8 6.241 17.395 10.13 25.684l199.125-93.73-209.255 68.046zM21.872 314.728c3.99 8.39 8.39 16.474 13.302 24.25l185.823-117.98-199.125 93.73z"/>
            <path fill="#3A2A56" d="M35.276 338.876c4.912 7.777 10.335 15.247 16.27 22.307l169.451-140.186-185.72 117.88z"/>
            <path fill="#3A2A56" d="M4.886 262.235c1.74 9.107 3.99 18.111 6.856 26.809l209.255-68.047L4.886 262.235zM1.407 234.811c.614 9.312 1.74 18.419 3.479 27.424l216.111-41.238-219.59 13.814zM70.374 381.342a218.242 218.242 0 0 0 21.284 17.6l129.34-177.945L70.373 381.342z"/>
            <path fill="#3A2A56" d="M139.956 425.649a207.47 207.47 0 0 0 26.297 8.493l54.744-213.145-81.041 204.652z"/>
            <path fill="#3A2A56" d="M1.407 207.183c-.205 4.605-.41 9.21-.41 13.814 0 4.605.205 9.21.41 13.814l219.59-13.814-219.59-13.814z"/>
            <path fill="#3A2A56" d="M51.444 361.183a219.646 219.646 0 0 0 18.93 20.159l150.623-160.345L51.444 361.183zM91.658 398.942c7.47 5.423 15.246 10.334 23.33 14.837l106.01-192.782-129.34 177.945z"/>
            <path fill="#3A2A56" d="M166.253 434.142c8.8 2.25 17.907 3.99 27.116 5.116l27.628-218.26-54.744 213.144z"/>
        </g>
    </g>
</svg>
