<svg id="games" viewBox="0 0 18 18">
      <g fill="#ADA6B1" fill-rule="nonzero">
          <path d="M9 12c0 6-1.346 3.966-2.125 5-.098.128-.39.462-.875 1h7a35.32 35.32 0 0 1-.875-1C11.328 15.977 10 18 10 12"></path>
          <path d="M9.502 11.897c2.675 5.536 8.755 2.897 8.49-2.053C17.715 4.692 10.87 3.901 9.502 0c-1.367 3.999-8.12 4.594-8.489 9.844-.347 4.944 6.107 7.611 8.49 2.053zm-.855-.381c-1.803 4.242-6.927 2.61-6.635-1.578.129-1.845 1-2.94 3.366-4.601l.931-.637c1.467-.992 2.433-1.747 3.096-2.561L9.515 2l.08.099c.613.746 1.486 1.451 2.773 2.345l.724.496c2.8 1.915 3.797 3.046 3.9 4.98.223 4.183-4.462 5.77-6.556 1.747l-.097-.193-.887-1.852-.805 1.894z"></path>
      </g>
    </svg>