<?xml version="1.0" encoding="UTF-8"?>
<svg width="18px" height="18px" viewBox="0 0 18 18" version="1.1" xmlns="http://www.w3.org/2000/svg" xmlns:xlink="http://www.w3.org/1999/xlink">
    <!-- Generator: Sketch 60.1 (88133) - https://sketch.com -->
    <title>icon/menu/dice/line</title>
    <desc>Created with Sketch.</desc>
    <g id="icon/menu/dice/line" stroke="none" stroke-width="1" fill="none" fill-rule="evenodd">
        <g id="3" transform="translate(4.000000, 3.000000)" fill="#B0AAB3" fill-rule="nonzero">
            <path d="M8.5,8.17211914 C9.32842712,8.17211914 10,8.84369202 10,9.67211914 C10,10.5005463 9.32842712,11.1721191 8.5,11.1721191 C7.67157288,11.1721191 7,10.5005463 7,9.67211914 C7,8.84369202 7.67157288,8.17211914 8.5,8.17211914 Z M1.5,8 C2.32842712,8 3,8.67157288 3,9.5 C3,10.3284271 2.32842712,11 1.5,11 C0.671572875,11 0,10.3284271 0,9.5 C0,8.67157288 0.671572875,8 1.5,8 Z M8.63964844,1 C9.46807556,1 10.1396484,1.67157288 10.1396484,2.5 C10.1396484,3.32842712 9.46807556,4 8.63964844,4 C7.81122131,4 7.13964844,3.32842712 7.13964844,2.5 C7.13964844,1.67157288 7.81122131,1 8.63964844,1 Z M1.5,0.901855469 C2.32842712,0.901855469 3,1.57342834 3,2.40185547 C3,3.23028259 2.32842712,3.90185547 1.5,3.90185547 C0.671572875,3.90185547 0,3.23028259 0,2.40185547 C0,1.57342834 0.671572875,0.901855469 1.5,0.901855469 Z" id="Combined-Shape"></path>
        </g>
        <rect id="Rectangle" stroke="#B0AAB3" x="0.5" y="0.5" width="17" height="17" rx="4"></rect>
    </g>
</svg>