<svg xmlns="http://www.w3.org/2000/svg" width="18" height="18" viewBox="0 0 18 18">
    <g fill="none" fill-rule="evenodd">
        <path fill="#AE9FB5" fill-rule="nonzero" d="M14.622 1.972a9 9 0 1 1-11.245 0L4 2.754a8 8 0 1 0 9.996 0z"/>
        <path stroke="#AE9FB5" d="M9 6.167L4.75.5h8.5L9 6.167z"/>
        <path fill="#AE9FB5" fill-rule="nonzero" d="M6.207 15.532l.845-1.813c.44.206.9.344 1.368.415l-.299 1.977a7.002 7.002 0 0 1-1.914-.58zm3.957.585l-.287-1.98a5.038 5.038 0 0 0 1.373-.404l.833 1.818a7.038 7.038 0 0 1-1.919.566zm3.632-1.677l-1.322-1.501c.357-.314.667-.679.923-1.086l1.694 1.063a6.952 6.952 0 0 1-1.295 1.524zm2.092-3.299l-1.92-.56c.135-.461.201-.935.2-1.41l2-.01a6.95 6.95 0 0 1-.28 1.98zm-.02-3.971l-1.914.577a5.035 5.035 0 0 0-.604-1.298l1.675-1.093c.367.563.65 1.174.844 1.814zM3.155 5.516L2.299 7.35l.855-1.833zm-.333.713c.112-.24.236-.47.37-.69L4.9 6.579a5.071 5.071 0 0 0-.565 1.317l-1.931-.52c.104-.387.243-.77.418-1.147zm-.654 3.154l1.999-.058c.014.478.096.953.245 1.409l-1.902.619a7.016 7.016 0 0 1-.342-1.97zm2.892 2.658c.271.393.598.744.971 1.043l-1.252 1.56a6.952 6.952 0 0 1-1.168-1.196l-.195-.267 1.644-1.14z"/>
    </g>
</svg>
