<svg xmlns="http://www.w3.org/2000/svg" width="18" height="18" viewBox="0 0 18 18">
    <g fill="none" fill-rule="evenodd">
        <path fill="#D8D8D8" fill-opacity="0" d="M0 0h18v18H0z"/>
        <path fill="#FFF" fill-rule="nonzero" d="M9 13a1 1 0 0 1 1 1v2a1 1 0 0 1-2 0v-2a1 1 0 0 1 1-1zm4.243-1.172l1.414 1.415a1 1 0 1 1-1.414 1.414l-1.415-1.414a1 1 0 0 1 1.415-1.415zm-7.071 0a1 1 0 0 1 0 1.415l-1.415 1.414a1 1 0 0 1-1.414-1.414l1.414-1.415a1 1 0 0 1 1.415 0zM16 8a1 1 0 0 1 0 2h-2a1 1 0 0 1 0-2h2zM4 8a1 1 0 1 1 0 2H2a1 1 0 1 1 0-2h2zm10.657-4.657a1 1 0 0 1 0 1.414l-1.414 1.415a1 1 0 0 1-1.415-1.415l1.415-1.414a1 1 0 0 1 1.414 0zm-9.9 0l1.415 1.414a1 1 0 0 1-1.415 1.415L3.343 4.757a1 1 0 0 1 1.414-1.414zM9 1a1 1 0 0 1 1 1v2a1 1 0 1 1-2 0V2a1 1 0 0 1 1-1z"/>
    </g>
</svg>