<svg xmlns="http://www.w3.org/2000/svg" width="24" height="24" viewBox="0 0 24 24">
    <g fill="#F43543" fill-rule="evenodd">
        <circle cx="9" cy="15" r="9" fill-rule="nonzero"/>
        <path d="M6 4h6v5H6zM19.25 7L21 10l.23-2.625h2.374L21.5 5.263 24 3.625 21 4V1l-2 2.842L18 2v2h-3l3 2-1.125 2.125z"/>
        <path fill-rule="nonzero" d="M9.571 6c0-3.091 1.415-5 3.429-5 .546 0 2.699 1 3 1 1 0 1.429.638 1.429 4H19C19 1.726 17.17.155 13.712.016A26.318 26.318 0 0 0 12.557 0C9.543 0 8 2.134 8 6h1.571z"/>
    </g>
</svg>